<svg width="16" height="11" viewBox="0 0 16 11" fill="none" xmlns="http://www.w3.org/2000/svg">
<path id="Vector" d="M14.1864 5.25C13.3382 3.88426 12.2751 2.86285 10.9972 2.18576C11.3376 2.78762 11.5078 3.43866 11.5078 4.13889C11.5078 5.20949 11.1409 6.12529 10.4071 6.88628C9.67327 7.64728 8.79018 8.02778 7.75781 8.02778C6.72545 8.02778 5.84235 7.64728 5.10854 6.88628C4.37472 6.12529 4.00781 5.20949 4.00781 4.13889C4.00781 3.43866 4.17801 2.78762 4.51841 2.18576C3.24051 2.86285 2.17746 3.88426 1.32924 5.25C2.07143 6.43634 3.00195 7.38108 4.12081 8.0842C5.23968 8.78733 6.45201 9.13889 7.75781 9.13889C9.06362 9.13889 10.2759 8.78733 11.3948 8.0842C12.5137 7.38108 13.4442 6.43634 14.1864 5.25ZM8.1596 1.91667C8.1596 1.80093 8.12054 1.70255 8.04241 1.62153C7.96429 1.54051 7.86942 1.5 7.75781 1.5C7.06027 1.5 6.46177 1.75897 5.96233 2.27691C5.46289 2.79485 5.21317 3.41551 5.21317 4.13889C5.21317 4.25463 5.25223 4.35301 5.33036 4.43403C5.40848 4.51505 5.50335 4.55556 5.61495 4.55556C5.72656 4.55556 5.82143 4.51505 5.89955 4.43403C5.97768 4.35301 6.01674 4.25463 6.01674 4.13889C6.01674 3.6412 6.18694 3.21586 6.52734 2.86285C6.86775 2.50984 7.2779 2.33333 7.75781 2.33333C7.86942 2.33333 7.96429 2.29282 8.04241 2.21181C8.12054 2.13079 8.1596 2.03241 8.1596 1.91667ZM15.2578 5.25C15.2578 5.44676 15.202 5.64641 15.0904 5.84896C14.3092 7.17998 13.2586 8.24624 11.9389 9.04774C10.6191 9.84925 9.22545 10.25 7.75781 10.25C6.29018 10.25 4.89648 9.8478 3.57673 9.0434C2.25698 8.23901 1.20647 7.17419 0.425223 5.84896C0.313616 5.64641 0.257812 5.44676 0.257812 5.25C0.257812 5.05324 0.313616 4.85359 0.425223 4.65104C1.20647 3.32581 2.25698 2.261 3.57673 1.4566C4.89648 0.652199 6.29018 0.25 7.75781 0.25C9.22545 0.25 10.6191 0.652199 11.9389 1.4566C13.2586 2.261 14.3092 3.32581 15.0904 4.65104C15.202 4.85359 15.2578 5.05324 15.2578 5.25Z" fill="#173767"/>
</svg>
