<svg width="71" height="71" viewBox="0 0 71 71" fill="none" xmlns="http://www.w3.org/2000/svg">
<g filter="url(#filter0_d_27_1577)">
<rect x="4" width="63" height="63" rx="8" fill="white"/>
<rect x="4.5" y="0.5" width="62" height="62" rx="7.5" stroke="#D9D9D9"/>
</g>
<path d="M54 26.9375C54 25.625 53.125 24.75 51.8125 24.75H21.1875C19.875 24.75 19 25.625 19 26.9375V40.0625C19 41.375 19.875 42.25 21.1875 42.25H51.8125C53.125 42.25 54 41.375 54 40.0625V26.9375ZM51.8125 40.0625H21.1875V26.9375H51.8125V40.0625Z" fill="black"/>
<path d="M31.75 34.3125C31.75 35.1081 31.4866 35.8712 31.0178 36.4338C30.5489 36.9964 29.913 37.3125 29.25 37.3125C28.587 37.3125 27.9511 36.9964 27.4822 36.4338C27.0134 35.8712 26.75 35.1081 26.75 34.3125C26.75 33.5169 27.0134 32.7538 27.4822 32.1912C27.9511 31.6286 28.587 31.3125 29.25 31.3125C29.913 31.3125 30.5489 31.6286 31.0178 32.1912C31.4866 32.7538 31.75 33.5169 31.75 34.3125ZM39.25 34.3125C39.25 35.1081 38.9866 35.8712 38.5178 36.4338C38.0489 36.9964 37.413 37.3125 36.75 37.3125C36.087 37.3125 35.4511 36.9964 34.9822 36.4338C34.5134 35.8712 34.25 35.1081 34.25 34.3125C34.25 33.5169 34.5134 32.7538 34.9822 32.1912C35.4511 31.6286 36.087 31.3125 36.75 31.3125C37.413 31.3125 38.0489 31.6286 38.5178 32.1912C38.9866 32.7538 39.25 33.5169 39.25 34.3125ZM46.75 34.3125C46.75 35.1081 46.4866 35.8712 46.0178 36.4338C45.5489 36.9964 44.913 37.3125 44.25 37.3125C43.587 37.3125 42.9511 36.9964 42.4822 36.4338C42.0134 35.8712 41.75 35.1081 41.75 34.3125C41.75 33.5169 42.0134 32.7538 42.4822 32.1912C42.9511 31.6286 43.587 31.3125 44.25 31.3125C44.913 31.3125 45.5489 31.6286 46.0178 32.1912C46.4866 32.7538 46.75 33.5169 46.75 34.3125Z" fill="black"/>
<defs>
<filter id="filter0_d_27_1577" x="0" y="0" width="71" height="71" filterUnits="userSpaceOnUse" color-interpolation-filters="sRGB">
<feFlood flood-opacity="0" result="BackgroundImageFix"/>
<feColorMatrix in="SourceAlpha" type="matrix" values="0 0 0 0 0 0 0 0 0 0 0 0 0 0 0 0 0 0 127 0" result="hardAlpha"/>
<feOffset dy="4"/>
<feGaussianBlur stdDeviation="2"/>
<feComposite in2="hardAlpha" operator="out"/>
<feColorMatrix type="matrix" values="0 0 0 0 0 0 0 0 0 0 0 0 0 0 0 0 0 0 0.25 0"/>
<feBlend mode="normal" in2="BackgroundImageFix" result="effect1_dropShadow_27_1577"/>
<feBlend mode="normal" in="SourceGraphic" in2="effect1_dropShadow_27_1577" result="shape"/>
</filter>
</defs>
</svg>
