<svg width="35" height="35" viewBox="0 0 35 35" fill="none" xmlns="http://www.w3.org/2000/svg">
<path d="M4.375 27.7055V14.6826C4.37493 14.2026 4.49335 13.7299 4.71976 13.3066C4.94618 12.8833 5.27358 12.5224 5.67292 12.256L15.8813 5.45137C16.3605 5.13159 16.9238 4.96094 17.5 4.96094C18.0762 4.96094 18.6395 5.13159 19.1187 5.45137L29.3271 12.256C29.7264 12.5224 30.0538 12.8833 30.2802 13.3066C30.5066 13.7299 30.6251 14.2026 30.625 14.6826V27.7055M4.375 27.7055C4.375 28.4791 4.68229 29.221 5.22927 29.7679C5.77625 30.3149 6.51812 30.6222 7.29167 30.6222H27.7083C28.4819 30.6222 29.2237 30.3149 29.7707 29.7679C30.3177 29.221 30.625 28.4791 30.625 27.7055M4.375 27.7055L14.2188 21.143M30.625 27.7055L20.7813 21.143M14.2188 21.143L4.375 14.5805M14.2188 21.143L15.8813 22.2514C16.3605 22.5712 16.9238 22.7418 17.5 22.7418C18.0762 22.7418 18.6395 22.5712 19.1187 22.2514L20.7813 21.143M20.7813 21.143L30.625 14.5805" stroke="black" stroke-width="2" stroke-linecap="round" stroke-linejoin="round"/>
</svg>
