<svg width="35" height="35" viewBox="0 0 35 35" fill="none" xmlns="http://www.w3.org/2000/svg">
<path d="M17.5 16.0443C17.5 21.1732 16.0285 25.9595 13.4852 30.002M8.46854 27.027L8.54729 26.8957C10.5926 23.6465 11.6743 19.8837 11.6667 16.0443C11.6667 14.4972 12.2813 13.0135 13.3752 11.9195C14.4692 10.8255 15.9529 10.211 17.5 10.211C19.0471 10.211 20.5308 10.8255 21.6248 11.9195C22.7188 13.0135 23.3333 14.4972 23.3333 16.0443C23.3333 17.5274 23.2313 18.9887 23.0373 20.4193M19.9485 30.4001C20.8487 28.6042 21.5772 26.7272 22.1244 24.7943M27.7229 26.4451C28.6635 23.1405 29.1667 19.6507 29.1667 16.0443C29.1671 13.9961 28.6284 11.984 27.6046 10.21C26.5808 8.43611 25.1081 6.96297 23.3345 5.93869C21.5608 4.91442 19.5488 4.37511 17.5007 4.375C15.4525 4.37489 13.4404 4.91396 11.6667 5.93804M4.375 22.4085C5.30833 20.4849 5.83333 18.3251 5.83333 16.0443C5.83333 13.9195 6.40208 11.9274 7.39375 10.211" stroke="black" stroke-width="2" stroke-linecap="round" stroke-linejoin="round"/>
</svg>
