<svg width="25" height="25" viewBox="0 0 25 25" fill="none" xmlns="http://www.w3.org/2000/svg">
<path d="M21.8756 12.5004C21.8756 12.7076 21.7933 12.9063 21.6468 13.0529C21.5003 13.1994 21.3016 13.2817 21.0944 13.2817H5.79261L11.4909 18.979C11.5634 19.0515 11.621 19.1377 11.6603 19.2325C11.6996 19.3274 11.7198 19.429 11.7198 19.5317C11.7198 19.6343 11.6996 19.736 11.6603 19.8308C11.621 19.9257 11.5634 20.0118 11.4909 20.0844C11.4183 20.157 11.3321 20.2146 11.2373 20.2539C11.1424 20.2931 11.0408 20.3134 10.9381 20.3134C10.8355 20.3134 10.7338 20.2931 10.639 20.2539C10.5441 20.2146 10.458 20.157 10.3854 20.0844L3.35413 13.0532C3.28149 12.9806 3.22387 12.8944 3.18455 12.7996C3.14524 12.7048 3.125 12.6031 3.125 12.5004C3.125 12.3978 3.14524 12.2961 3.18455 12.2013C3.22387 12.1064 3.28149 12.0203 3.35413 11.9477L10.3854 4.91645C10.532 4.76986 10.7308 4.6875 10.9381 4.6875C11.1454 4.6875 11.3443 4.76986 11.4909 4.91645C11.6374 5.06304 11.7198 5.26187 11.7198 5.46918C11.7198 5.6765 11.6374 5.87532 11.4909 6.02192L5.79261 11.7192H21.0944C21.3016 11.7192 21.5003 11.8015 21.6468 11.948C21.7933 12.0945 21.8756 12.2932 21.8756 12.5004Z" fill="#173767"/>
</svg>
