<svg width="71" height="71" viewBox="0 0 71 71" fill="none" xmlns="http://www.w3.org/2000/svg">
<g filter="url(#filter0_d_27_1628)">
<rect x="4" width="63" height="63" rx="8" fill="white"/>
<rect x="4.5" y="0.5" width="62" height="62" rx="7.5" stroke="#D9D9D9"/>
</g>
<path d="M36.5023 18.9141L40.3326 21.7082L45.0744 21.6995L46.5305 26.2116L50.3718 28.9911L48.8981 33.4974L50.3718 38.0036L46.5305 40.7832L45.0744 45.2953L40.3326 45.2866L36.5023 48.0807L32.672 45.2866L27.9302 45.2953L26.4741 40.7832L22.6328 38.0036L24.1065 33.4974L22.6328 28.9911L26.4741 26.2116L27.9302 21.6995L32.672 21.7082L36.5023 18.9141Z" stroke="black" stroke-width="4" stroke-linecap="round" stroke-linejoin="round"/>
<path d="M31.3984 33.4974L35.0443 37.1432L42.3359 29.8516" stroke="black" stroke-width="4" stroke-linecap="round" stroke-linejoin="round"/>
<defs>
<filter id="filter0_d_27_1628" x="0" y="0" width="71" height="71" filterUnits="userSpaceOnUse" color-interpolation-filters="sRGB">
<feFlood flood-opacity="0" result="BackgroundImageFix"/>
<feColorMatrix in="SourceAlpha" type="matrix" values="0 0 0 0 0 0 0 0 0 0 0 0 0 0 0 0 0 0 127 0" result="hardAlpha"/>
<feOffset dy="4"/>
<feGaussianBlur stdDeviation="2"/>
<feComposite in2="hardAlpha" operator="out"/>
<feColorMatrix type="matrix" values="0 0 0 0 0 0 0 0 0 0 0 0 0 0 0 0 0 0 0.25 0"/>
<feBlend mode="normal" in2="BackgroundImageFix" result="effect1_dropShadow_27_1628"/>
<feBlend mode="normal" in="SourceGraphic" in2="effect1_dropShadow_27_1628" result="shape"/>
</filter>
</defs>
</svg>
